<?xml version="1.0" encoding="utf-8"?>
<!-- Generator: Adobe Illustrator 19.0.0, SVG Export Plug-In . SVG Version: 6.00 Build 0)  -->
<svg version="1.1" id="Layer_1" xmlns="http://www.w3.org/2000/svg" xmlns:xlink="http://www.w3.org/1999/xlink" x="0px" y="0px"
	 viewBox="0 0 540.6 273.1" style="enable-background:new 0 0 540.6 273.1;" xml:space="preserve">
<style type="text/css">
	.st0{fill:#FFFFFF;}
</style>
<g>
	<rect x="9" y="96.3" class="st0" width="13.6" height="100.7"/>
	<path class="st0" d="M81,108.9h37.9c5.2,0,9,1,11.5,3.7c2.4,2.8,3,6.7,3,11.9v72.6H147v-72.6c0-10-2.3-16.9-6.7-21.4
		c-4.5-4.5-11.4-6.7-21.4-6.7H81c-10,0-16.9,2.3-21.4,6.7c-4.5,4.5-6.7,11.4-6.7,21.4v72.6h13.6v-72.6c0-5.2,0.7-9.1,3-11.9
		C72,109.9,75.8,108.9,81,108.9"/>
	<polygon class="st0" points="266.9,96.3 177.3,96.3 177.3,108.9 253.3,108.9 253.3,110.4 253.3,113 177.3,174.9 177.3,197.1 
		266.9,197.1 266.9,184.6 190.9,184.6 190.9,183 190.9,181.2 190.9,180.5 266.9,118.8 	"/>
	<rect x="9" y="51.6" class="st0" width="13.6" height="13.6"/>
	<path class="st0" d="M389.8,103.1c-4.5-4.5-11.4-6.7-21.4-6.7h-71.3v100.7h13.6v-12.5v-75.7h57.6c5.2,0,9,1,11.4,3.7
		c2.4,2.8,3,6.7,3,11.9v44.5c0,5.2-0.7,9.1-3,11.9c-2.4,2.7-6.2,3.7-11.4,3.7h-23.1l-13.4,12.5h36.5c10,0,16.9-2.3,21.4-6.7
		c4.5-4.5,6.7-11.4,6.7-21.4v-44.5C396.5,114.5,394.3,107.5,389.8,103.1"/>
	<polygon class="st0" points="345.3,197.1 310.8,221.4 310.8,208.9 345.3,184.6 	"/>
	<path class="st0" d="M531,196.2c-1.5-2.3-3-4.7-4.7-7.3c-2.1-3.3-4.3-6.7-6.5-10.1c-2.2-3.4-4.4-6.8-6.6-10.2
		c-2.2-3.4-4.2-6.6-6.2-9.6l-0.4-0.7c3.6-0.7,6.8-2.2,8.6-3.5c1.9-1.4,3.7-2.8,5.3-4.7l1.6-2l0,0c2-2.5,3.4-5.2,4.6-8.2
		c1.5-3.8,2.2-8,2.2-12.4c0-5.5-1.2-10.6-3.5-15.3c-2.3-4.7-5.1-7.9-9-10.7l0,0l0,0c-4.7-3.5-11.2-5.1-17-5.1h-72.6v100.8h13.3
		v-38.4h51.2l24.3,38.4h16.1L531,196.2z M440.1,110.5h59.3c2.1,0,4.2,0.4,6.1,1.3c1.9,0.9,3.6,2.1,5.1,3.6c1.5,1.5,2.6,3.3,3.5,5.4
		c0.9,2.1,1.3,4.3,1.3,6.7c0,2.4-0.4,4.6-1.3,6.7c-0.8,2.1-2,3.9-3.4,5.4c-1.4,1.6-2.8,2.6-4.6,3.8c-2.1,1.4-4.3,1.8-6.4,1.8h-59
		h-0.6V110.5z"/>
</g>
</svg>
